<mxfile host="app.diagrams.net" agent="Mozilla/5.0 (Macintosh; Intel Mac OS X 10_15_7) AppleWebKit/537.36 (KHTML, like Gecko) Chrome/137.0.0.0 Safari/537.36" version="27.1.4">
  <diagram id="k5zOIPOxMEVEV548pZkk" name="Page-1">
    <mxGraphModel dx="1502" dy="1006" grid="1" gridSize="10" guides="1" tooltips="1" connect="1" arrows="1" fold="1" page="1" pageScale="1" pageWidth="827" pageHeight="1169" background="none" math="0" shadow="0">
      <root>
        <mxCell id="0" />
        <mxCell id="1" parent="0" />
        <mxCell id="thDXJ9rHC7QRxlY3D63U-6" value="" style="edgeStyle=orthogonalEdgeStyle;rounded=0;orthogonalLoop=1;jettySize=auto;html=1;" parent="1" source="thDXJ9rHC7QRxlY3D63U-4" target="thDXJ9rHC7QRxlY3D63U-5" edge="1">
          <mxGeometry relative="1" as="geometry" />
        </mxCell>
        <mxCell id="thDXJ9rHC7QRxlY3D63U-7" value="Pickup&amp;nbsp;&lt;br&gt;tool" style="edgeLabel;html=1;align=center;verticalAlign=middle;resizable=0;points=[];fontSize=8;" parent="thDXJ9rHC7QRxlY3D63U-6" vertex="1" connectable="0">
          <mxGeometry x="-0.2313" y="1" relative="1" as="geometry">
            <mxPoint as="offset" />
          </mxGeometry>
        </mxCell>
        <mxCell id="thDXJ9rHC7QRxlY3D63U-4" value="&lt;pre style=&quot;font-family: Menlo, &amp;quot;Roboto Mono&amp;quot;, &amp;quot;Courier New&amp;quot;, Courier, monospace, Inter, sans-serif; overflow: auto; padding: 9.144px 13.716px; text-wrap-mode: wrap; word-break: break-all; text-align: start; margin: 0px !important;&quot;&gt;&lt;font&gt;MAINTENANCE TUNNELS  &lt;br&gt;   The air smells of ozone and burnt wiring. Flickering  &lt;br&gt;   lights reveal a damaged maintenance droid slumped  &lt;br&gt;   against the wall, blocking the east tunnel.  &lt;br&gt;&lt;br&gt;   &amp;gt;&amp;gt; ITEMS HERE:  &lt;br&gt;   - A diagnostic tool glows faintly on the floor.  &lt;br&gt;&lt;br&gt;   &amp;gt;&amp;gt; OBSTACLE:  &lt;br&gt;   - The droid&#39;s arm sparks erratically. (BLOCKING EAST)  &lt;br&gt;&lt;br&gt;   EXITS: [east]  &lt;/font&gt;&lt;/pre&gt;" style="rounded=0;whiteSpace=wrap;html=1;fontSize=9;fillColor=#FFE599;strokeWidth=3;" parent="1" vertex="1">
          <mxGeometry x="230" y="10" width="370" height="140" as="geometry" />
        </mxCell>
        <mxCell id="9JrHhXIoi9-wvf1s2VBX-2" value="" style="edgeStyle=orthogonalEdgeStyle;rounded=0;orthogonalLoop=1;jettySize=auto;html=1;" parent="1" source="thDXJ9rHC7QRxlY3D63U-5" target="9JrHhXIoi9-wvf1s2VBX-1" edge="1">
          <mxGeometry relative="1" as="geometry" />
        </mxCell>
        <mxCell id="thDXJ9rHC7QRxlY3D63U-5" value="&lt;pre style=&quot;overflow: auto; padding: 9.144px 13.716px; word-break: break-all; text-align: start; margin: 0px !important;&quot;&gt;&lt;font face=&quot;Menlo, Roboto Mono, Courier New, Courier, monospace, Inter, sans-serif&quot;&gt;&lt;span style=&quot;text-wrap-mode: wrap;&quot;&gt;✔ You grab the diagnostic tool. [+10]  &lt;br/&gt;   (SCORE: 10 | HAZARDS: 0)  &lt;/span&gt;&lt;/font&gt;&lt;/pre&gt;" style="whiteSpace=wrap;html=1;fontSize=11;rounded=0;fillColor=#FFE599;strokeWidth=3;" parent="1" vertex="1">
          <mxGeometry x="276.5" y="173" width="276" height="40" as="geometry" />
        </mxCell>
        <mxCell id="9JrHhXIoi9-wvf1s2VBX-4" value="" style="edgeStyle=orthogonalEdgeStyle;rounded=0;orthogonalLoop=1;jettySize=auto;html=1;" parent="1" source="9JrHhXIoi9-wvf1s2VBX-1" target="9JrHhXIoi9-wvf1s2VBX-3" edge="1">
          <mxGeometry relative="1" as="geometry" />
        </mxCell>
        <mxCell id="9JrHhXIoi9-wvf1s2VBX-5" value="Move East" style="edgeLabel;html=1;align=center;verticalAlign=middle;resizable=0;points=[];" parent="9JrHhXIoi9-wvf1s2VBX-4" vertex="1" connectable="0">
          <mxGeometry x="-0.3385" y="-2" relative="1" as="geometry">
            <mxPoint x="2" y="3" as="offset" />
          </mxGeometry>
        </mxCell>
        <mxCell id="1EWVFiG9j-QCH-CJ6pgE-13" style="edgeStyle=orthogonalEdgeStyle;rounded=0;orthogonalLoop=1;jettySize=auto;html=1;entryX=0;entryY=0.5;entryDx=0;entryDy=0;" edge="1" parent="1" source="9JrHhXIoi9-wvf1s2VBX-1" target="9JrHhXIoi9-wvf1s2VBX-12">
          <mxGeometry relative="1" as="geometry">
            <Array as="points">
              <mxPoint x="190" y="293" />
              <mxPoint x="190" y="608" />
            </Array>
          </mxGeometry>
        </mxCell>
        <mxCell id="1EWVFiG9j-QCH-CJ6pgE-14" value="Use Tool" style="edgeLabel;html=1;align=center;verticalAlign=middle;resizable=0;points=[];" vertex="1" connectable="0" parent="1EWVFiG9j-QCH-CJ6pgE-13">
          <mxGeometry x="0.0487" y="2" relative="1" as="geometry">
            <mxPoint x="1" as="offset" />
          </mxGeometry>
        </mxCell>
        <mxCell id="9JrHhXIoi9-wvf1s2VBX-1" value="&lt;div&gt;╔═════════════════════════╗&amp;nbsp;&amp;nbsp;&lt;/div&gt;&lt;div&gt;&amp;nbsp; &amp;nbsp;MAINTENANCE TUNNELS&amp;nbsp;&amp;nbsp;&lt;/div&gt;&lt;div&gt;&amp;nbsp; &amp;nbsp;The droid beeps angrily as you approach the exit.&amp;nbsp;&amp;nbsp;&lt;/div&gt;&lt;div&gt;&lt;br&gt;&lt;/div&gt;&lt;div&gt;&amp;nbsp; &amp;nbsp;&amp;gt;&amp;gt; OBSTACLE:&amp;nbsp;&amp;nbsp;&lt;/div&gt;&lt;div&gt;&amp;nbsp; &amp;nbsp;- &quot;ERROR: REPAIR REQUIRED!&quot; flashes on its display.&amp;nbsp;&amp;nbsp;&lt;/div&gt;&lt;div&gt;&lt;br&gt;&lt;/div&gt;&lt;div&gt;&amp;nbsp; &amp;nbsp;EXITS: [east]&amp;nbsp;&amp;nbsp;&lt;/div&gt;&lt;div&gt;╚════════════════════════╝&amp;nbsp;&amp;nbsp;&lt;/div&gt;" style="whiteSpace=wrap;html=1;fontSize=11;rounded=0;fillColor=#FFE599;strokeWidth=3;" parent="1" vertex="1">
          <mxGeometry x="235.5" y="233" width="358" height="120" as="geometry" />
        </mxCell>
        <mxCell id="9JrHhXIoi9-wvf1s2VBX-8" value="" style="edgeStyle=orthogonalEdgeStyle;rounded=0;orthogonalLoop=1;jettySize=auto;html=1;" parent="1" source="9JrHhXIoi9-wvf1s2VBX-3" target="9JrHhXIoi9-wvf1s2VBX-6" edge="1">
          <mxGeometry relative="1" as="geometry" />
        </mxCell>
        <mxCell id="9JrHhXIoi9-wvf1s2VBX-3" value="&lt;div&gt;✖ The droid SHOVES you back! (+1 HAZARD)&amp;nbsp;&amp;nbsp;&lt;/div&gt;&lt;div&gt;&amp;nbsp; &amp;nbsp;(SCORE: 10 | HAZARDS: 1)&amp;nbsp;&amp;nbsp;&lt;/div&gt;" style="whiteSpace=wrap;html=1;fontSize=11;rounded=0;fillColor=#FFE599;strokeWidth=3;" parent="1" vertex="1">
          <mxGeometry x="276" y="383" width="276" height="40" as="geometry" />
        </mxCell>
        <mxCell id="9JrHhXIoi9-wvf1s2VBX-13" value="" style="edgeStyle=orthogonalEdgeStyle;rounded=0;orthogonalLoop=1;jettySize=auto;html=1;" parent="1" source="9JrHhXIoi9-wvf1s2VBX-6" target="9JrHhXIoi9-wvf1s2VBX-12" edge="1">
          <mxGeometry relative="1" as="geometry" />
        </mxCell>
        <mxCell id="9JrHhXIoi9-wvf1s2VBX-6" value="&lt;div&gt;╔══════════════════╗&amp;nbsp;&amp;nbsp;&lt;/div&gt;&lt;div&gt;&amp;nbsp; &amp;nbsp;MAINTENANCE TUNNELS&amp;nbsp;&amp;nbsp;&lt;/div&gt;&lt;div&gt;&amp;nbsp; &amp;nbsp;The droid whirs weakly as you raise the tool.&amp;nbsp;&amp;nbsp;&lt;/div&gt;&lt;div&gt;&lt;br&gt;&lt;/div&gt;&lt;div&gt;&amp;nbsp; &amp;nbsp;&amp;gt;&amp;gt; ACTION NEEDED:&amp;nbsp;&amp;nbsp;&lt;/div&gt;&lt;div&gt;&amp;nbsp; &amp;nbsp;- &quot;use tool&quot; to fix it.&amp;nbsp;&amp;nbsp;&lt;/div&gt;&lt;div&gt;╚═════════════════╝&amp;nbsp;&amp;nbsp;&lt;/div&gt;" style="whiteSpace=wrap;html=1;fontSize=11;rounded=0;fillColor=#FFE599;strokeWidth=3;" parent="1" vertex="1">
          <mxGeometry x="252.75" y="453" width="323.5" height="100" as="geometry" />
        </mxCell>
        <mxCell id="9JrHhXIoi9-wvf1s2VBX-16" value="" style="edgeStyle=orthogonalEdgeStyle;rounded=0;orthogonalLoop=1;jettySize=auto;html=1;" parent="1" source="9JrHhXIoi9-wvf1s2VBX-12" target="9JrHhXIoi9-wvf1s2VBX-15" edge="1">
          <mxGeometry relative="1" as="geometry" />
        </mxCell>
        <mxCell id="9JrHhXIoi9-wvf1s2VBX-12" value="&lt;pre style=&quot;font-family: Menlo, &amp;quot;Roboto Mono&amp;quot;, &amp;quot;Courier New&amp;quot;, Courier, monospace, Inter, sans-serif; overflow: auto; padding: 9.144px 13.716px; text-wrap-mode: wrap; word-break: break-all; text-align: start; margin: 0px !important;&quot;&gt;✔ Droid reboots! It salutes and shuffles aside. [+20]  &lt;br&gt;   (SCORE: 30 | HAZARDS: 1)  &lt;/pre&gt;" style="whiteSpace=wrap;html=1;fontSize=9;rounded=0;fillColor=#FFE599;strokeWidth=3;" parent="1" vertex="1">
          <mxGeometry x="258.62" y="583" width="311.75" height="50" as="geometry" />
        </mxCell>
        <mxCell id="9JrHhXIoi9-wvf1s2VBX-18" value="" style="edgeStyle=orthogonalEdgeStyle;rounded=0;orthogonalLoop=1;jettySize=auto;html=1;" parent="1" source="9JrHhXIoi9-wvf1s2VBX-15" target="9JrHhXIoi9-wvf1s2VBX-17" edge="1">
          <mxGeometry relative="1" as="geometry" />
        </mxCell>
        <mxCell id="9JrHhXIoi9-wvf1s2VBX-19" value="Move East" style="edgeLabel;html=1;align=center;verticalAlign=middle;resizable=0;points=[];" parent="9JrHhXIoi9-wvf1s2VBX-18" vertex="1" connectable="0">
          <mxGeometry x="-0.2023" y="-1" relative="1" as="geometry">
            <mxPoint y="3" as="offset" />
          </mxGeometry>
        </mxCell>
        <mxCell id="9JrHhXIoi9-wvf1s2VBX-15" value="&lt;pre style=&quot;overflow: auto; padding: 9.144px 13.716px; word-break: break-all; text-align: start; margin: 0px !important;&quot;&gt;&lt;font face=&quot;Menlo, Roboto Mono, Courier New, Courier, monospace, Inter, sans-serif&quot;&gt;&lt;span style=&quot;text-wrap-mode: wrap;&quot;&gt;╔════════════════════════════════════════════╗  &lt;br/&gt;   MAINTENANCE TUNNELS  &lt;br/&gt;   The corridor to the Docking Bay is now clear.  &lt;br/&gt;&lt;br/&gt;   EXITS: [east]  &lt;br/&gt;╚════════════════════════════════════════════╝  &lt;/span&gt;&lt;/font&gt;&lt;/pre&gt;" style="whiteSpace=wrap;html=1;fontSize=9;rounded=0;fillColor=#FFE599;strokeWidth=3;" parent="1" vertex="1">
          <mxGeometry x="265.87" y="663" width="297.25" height="70" as="geometry" />
        </mxCell>
        <mxCell id="9JrHhXIoi9-wvf1s2VBX-21" value="" style="edgeStyle=orthogonalEdgeStyle;rounded=0;orthogonalLoop=1;jettySize=auto;html=1;" parent="1" source="9JrHhXIoi9-wvf1s2VBX-17" target="9JrHhXIoi9-wvf1s2VBX-20" edge="1">
          <mxGeometry relative="1" as="geometry" />
        </mxCell>
        <mxCell id="9JrHhXIoi9-wvf1s2VBX-17" value="✔ You enter the DOCKING BAY.&amp;nbsp;&amp;nbsp;" style="whiteSpace=wrap;html=1;fontSize=9;rounded=0;fillColor=#FFE599;strokeWidth=3;" parent="1" vertex="1">
          <mxGeometry x="306.74" y="763" width="215.51" height="25" as="geometry" />
        </mxCell>
        <mxCell id="9JrHhXIoi9-wvf1s2VBX-23" value="" style="edgeStyle=orthogonalEdgeStyle;rounded=0;orthogonalLoop=1;jettySize=auto;html=1;" parent="1" source="9JrHhXIoi9-wvf1s2VBX-20" target="9JrHhXIoi9-wvf1s2VBX-22" edge="1">
          <mxGeometry relative="1" as="geometry" />
        </mxCell>
        <mxCell id="9JrHhXIoi9-wvf1s2VBX-20" value="&lt;div&gt;╔═════════════════════════╗&amp;nbsp;&amp;nbsp;&lt;/div&gt;&lt;div&gt;&amp;nbsp; &amp;nbsp;DOCKING BAY&amp;nbsp;&amp;nbsp;&lt;/div&gt;&lt;div&gt;&amp;nbsp; &amp;nbsp;Debris floats in zero-G near a shattered window.&amp;nbsp;&amp;nbsp;&lt;/div&gt;&lt;div&gt;&amp;nbsp; &amp;nbsp;A pulsating ENERGY CRYSTAL is lodged in the wall.&amp;nbsp;&amp;nbsp;&lt;/div&gt;&lt;div&gt;&lt;span style=&quot;background-color: transparent; color: light-dark(rgb(0, 0, 0), rgb(255, 255, 255));&quot;&gt;ACTIONS: [pick up crystal]&amp;nbsp;&amp;nbsp;&lt;/span&gt;&lt;/div&gt;&lt;div&gt;&lt;br&gt;EXITS: [west]&amp;nbsp;&lt;/div&gt;&lt;div&gt;╚═════&lt;span style=&quot;background-color: transparent; color: light-dark(rgb(0, 0, 0), rgb(255, 255, 255));&quot;&gt;═&lt;/span&gt;&lt;span style=&quot;background-color: transparent; color: light-dark(rgb(0, 0, 0), rgb(255, 255, 255));&quot;&gt;═&lt;/span&gt;&lt;span style=&quot;background-color: transparent; color: light-dark(rgb(0, 0, 0), rgb(255, 255, 255));&quot;&gt;═&lt;/span&gt;&lt;span style=&quot;background-color: transparent; color: light-dark(rgb(0, 0, 0), rgb(255, 255, 255));&quot;&gt;═════════════════╝&amp;nbsp;&amp;nbsp;&lt;/span&gt;&lt;/div&gt;" style="whiteSpace=wrap;html=1;fontSize=9;rounded=0;fillColor=#FFE599;strokeWidth=3;" parent="1" vertex="1">
          <mxGeometry x="291.75" y="813" width="245.5" height="72.5" as="geometry" />
        </mxCell>
        <mxCell id="1EWVFiG9j-QCH-CJ6pgE-2" value="" style="edgeStyle=orthogonalEdgeStyle;rounded=0;orthogonalLoop=1;jettySize=auto;html=1;" edge="1" parent="1" source="9JrHhXIoi9-wvf1s2VBX-22" target="1EWVFiG9j-QCH-CJ6pgE-1">
          <mxGeometry relative="1" as="geometry" />
        </mxCell>
        <mxCell id="9JrHhXIoi9-wvf1s2VBX-22" value="&lt;div&gt;✔ The crystal vibrates in your palm. [+50]&amp;nbsp;&amp;nbsp;&lt;/div&gt;&lt;div&gt;&amp;nbsp; &amp;nbsp;(SCORE: 80 | HAZARDS: 1)&amp;nbsp;&amp;nbsp;&lt;br&gt;&lt;/div&gt;" style="whiteSpace=wrap;html=1;fontSize=9;rounded=0;fillColor=#FFE599;strokeWidth=3;" parent="1" vertex="1">
          <mxGeometry x="321.25" y="913" width="185.5" height="30" as="geometry" />
        </mxCell>
        <mxCell id="1EWVFiG9j-QCH-CJ6pgE-4" value="" style="edgeStyle=orthogonalEdgeStyle;rounded=0;orthogonalLoop=1;jettySize=auto;html=1;" edge="1" parent="1" source="1EWVFiG9j-QCH-CJ6pgE-1" target="1EWVFiG9j-QCH-CJ6pgE-3">
          <mxGeometry relative="1" as="geometry" />
        </mxCell>
        <mxCell id="1EWVFiG9j-QCH-CJ6pgE-5" value="Status" style="edgeLabel;html=1;align=center;verticalAlign=middle;resizable=0;points=[];" vertex="1" connectable="0" parent="1EWVFiG9j-QCH-CJ6pgE-4">
          <mxGeometry x="-0.399" y="1" relative="1" as="geometry">
            <mxPoint x="11" y="1" as="offset" />
          </mxGeometry>
        </mxCell>
        <mxCell id="1EWVFiG9j-QCH-CJ6pgE-9" value="" style="edgeStyle=orthogonalEdgeStyle;rounded=0;orthogonalLoop=1;jettySize=auto;html=1;" edge="1" parent="1" source="1EWVFiG9j-QCH-CJ6pgE-1" target="1EWVFiG9j-QCH-CJ6pgE-7">
          <mxGeometry relative="1" as="geometry">
            <Array as="points">
              <mxPoint x="414" y="1013" />
              <mxPoint x="415" y="1013" />
            </Array>
          </mxGeometry>
        </mxCell>
        <mxCell id="1EWVFiG9j-QCH-CJ6pgE-1" value="&lt;div&gt;════════════════╗&amp;nbsp;&amp;nbsp;&lt;/div&gt;&lt;div&gt;&amp;nbsp; &amp;nbsp;DOCKING BAY&amp;nbsp;&amp;nbsp;&lt;/div&gt;&lt;div&gt;&amp;nbsp; &amp;nbsp;The escape pod hatch glows green. Almost done...&amp;nbsp;&amp;nbsp;&lt;/div&gt;&lt;div&gt;╚═══════════════╝&amp;nbsp;&amp;nbsp;&lt;/div&gt;" style="whiteSpace=wrap;html=1;fontSize=9;fillColor=#FFE599;rounded=0;strokeWidth=3;" vertex="1" parent="1">
          <mxGeometry x="286" y="963" width="256" height="45" as="geometry" />
        </mxCell>
        <mxCell id="1EWVFiG9j-QCH-CJ6pgE-6" style="edgeStyle=orthogonalEdgeStyle;rounded=0;orthogonalLoop=1;jettySize=auto;html=1;entryX=1;entryY=1;entryDx=0;entryDy=0;" edge="1" parent="1" source="1EWVFiG9j-QCH-CJ6pgE-3" target="1EWVFiG9j-QCH-CJ6pgE-1">
          <mxGeometry relative="1" as="geometry">
            <Array as="points">
              <mxPoint x="685" y="1008" />
            </Array>
          </mxGeometry>
        </mxCell>
        <mxCell id="1EWVFiG9j-QCH-CJ6pgE-3" value="📊 SCORE: 80 | HAZARDS: 1&amp;nbsp;&amp;nbsp;" style="whiteSpace=wrap;html=1;fontSize=9;fillColor=#FFE599;rounded=0;strokeWidth=3;" vertex="1" parent="1">
          <mxGeometry x="620" y="974.25" width="130" height="22.5" as="geometry" />
        </mxCell>
        <mxCell id="1EWVFiG9j-QCH-CJ6pgE-11" value="" style="edgeStyle=orthogonalEdgeStyle;rounded=0;orthogonalLoop=1;jettySize=auto;html=1;" edge="1" parent="1" source="1EWVFiG9j-QCH-CJ6pgE-7" target="1EWVFiG9j-QCH-CJ6pgE-10">
          <mxGeometry relative="1" as="geometry" />
        </mxCell>
        <mxCell id="1EWVFiG9j-QCH-CJ6pgE-7" value="&lt;div&gt;╔═══════════════════╗&amp;nbsp;&amp;nbsp;&lt;/div&gt;&lt;div&gt;&amp;nbsp; &amp;nbsp;DOCKING BAY&amp;nbsp;&amp;nbsp;&lt;/div&gt;&lt;div&gt;&amp;nbsp; &amp;nbsp;Type &quot;win&quot; to launch the pod and escape!&amp;nbsp;&amp;nbsp;&lt;/div&gt;&lt;div&gt;╚═══════════════════╝&amp;nbsp;&amp;nbsp;&lt;/div&gt;" style="whiteSpace=wrap;html=1;fontSize=9;fillColor=#FFE599;rounded=0;strokeWidth=3;" vertex="1" parent="1">
          <mxGeometry x="261.5" y="1023" width="306" height="57.5" as="geometry" />
        </mxCell>
        <mxCell id="1EWVFiG9j-QCH-CJ6pgE-10" value="&lt;div&gt;🚀 MISSION COMPLETE!&amp;nbsp;&amp;nbsp;&lt;/div&gt;&lt;div&gt;&amp;nbsp; &amp;nbsp;FINAL SCORE: 110 (80 + 30 bonus)&amp;nbsp;&amp;nbsp;&lt;/div&gt;&lt;div&gt;&amp;nbsp; &amp;nbsp;HAZARDS ENCOUNTERED: 1&amp;nbsp;&amp;nbsp;&lt;/div&gt;&lt;div&gt;&amp;nbsp; &amp;nbsp;&quot;Orbital Station saved. Well done, Engineer.&quot;&amp;nbsp;&amp;nbsp;&lt;/div&gt;" style="whiteSpace=wrap;html=1;fontSize=9;fillColor=#FFE599;rounded=0;strokeWidth=3;" vertex="1" parent="1">
          <mxGeometry x="267.62" y="1100" width="295.5" height="56.25" as="geometry" />
        </mxCell>
      </root>
    </mxGraphModel>
  </diagram>
</mxfile>
